HIERARCHY
ROOT Pelvis
{
	OFFSET 0.000000 0.000000 0.000000
	CHANNELS 6 Xposition Yposition Zposition Xrotation Yrotation Zrotation
	JOINT LeftUpLeg_virtual
	{
		OFFSET 0.000000 0.000000 0.000000
		CHANNELS 3 Xrotation Yrotation Zrotation
		JOINT LeftUpLeg
		{
			OFFSET 18.735201 -5.666702 -4.541200
			CHANNELS 3 Xrotation Yrotation Zrotation
			JOINT LeftLeg
			{
				OFFSET -0.021200 -31.938179 0.493100
				CHANNELS 3 Xrotation Yrotation Zrotation
				JOINT LeftFoot
				{
					OFFSET 0.021200 -31.938179 -4.336299
					CHANNELS 3 Xrotation Yrotation Zrotation
					JOINT LeftToeBase
					{
						OFFSET 0.943001 -26.722000 15.023500
						CHANNELS 3 Xrotation Yrotation Zrotation
						End Site
						{
							OFFSET 0 0 0
						}
					}
				}
			}
		}
	}
	JOINT RightUpLeg_virtual
	{
		OFFSET 0.000000 0.000000 0.000000
		CHANNELS 3 Xrotation Yrotation Zrotation
		JOINT RightUpLeg
		{
			OFFSET -18.735201 -5.666702 -4.541200
			CHANNELS 3 Xrotation Yrotation Zrotation
			JOINT RightLeg
			{
				OFFSET 0.018946 -31.938133 0.493100
				CHANNELS 3 Xrotation Yrotation Zrotation
				JOINT RightFoot
				{
					OFFSET -0.018946 -31.938126 -4.336299
					CHANNELS 3 Xrotation Yrotation Zrotation
					JOINT RightToeBase
					{
						OFFSET -0.943001 -26.722004 15.023500
						CHANNELS 3 Xrotation Yrotation Zrotation
						End Site
						{
							OFFSET 0 0 0
						}
					}
				}
			}
		}
	}
	JOINT Hips_virtual
	{
		OFFSET 0.000000 0.000000 0.000000
		CHANNELS 3 Xrotation Yrotation Zrotation
		JOINT Hips
		{
			OFFSET -0.000000 -0.000000 -0.000000
			CHANNELS 3 Xrotation Yrotation Zrotation
			JOINT Spine
			{
				OFFSET 0.000000 10.199997 -0.299500
				CHANNELS 3 Xrotation Yrotation Zrotation
				JOINT Spine1
				{
					OFFSET 0.000000 11.900002 -1.516600
					CHANNELS 3 Xrotation Yrotation Zrotation
					JOINT Spine2
					{
						OFFSET 0.000000 13.600006 -2.842500
						CHANNELS 3 Xrotation Yrotation Zrotation
						JOINT Neck_virtual
						{
							OFFSET 0.000000 0.000000 0.000000
							CHANNELS 3 Xrotation Yrotation Zrotation
							JOINT Neck
							{
								OFFSET 0.000000 9.624100 -2.890100
								CHANNELS 3 Xrotation Yrotation Zrotation
								JOINT Head
								{
									OFFSET 0.000000 14.068802 -1.351900
									CHANNELS 3 Xrotation Yrotation Zrotation
									End Site
									{
										OFFSET 0 0 0
									}
								}
							}
						}
						JOINT LeftShoulder_virtual
						{
							OFFSET 0.000000 0.000000 0.000000
							CHANNELS 3 Xrotation Yrotation Zrotation
							JOINT LeftShoulder
							{
								OFFSET 15.263000 10.923401 -0.547700
								CHANNELS 3 Xrotation Yrotation Zrotation
								JOINT LeftArm
								{
									OFFSET 25.438599 -2.830597 -13.032500
									CHANNELS 3 Xrotation Yrotation Zrotation
									JOINT LeftForeArm
									{
										OFFSET 29.960503 0.000000 0.000000
										CHANNELS 3 Xrotation Yrotation Zrotation
										JOINT LeftHand
										{
											OFFSET 27.849251 0.000000 0.000000
											CHANNELS 3 Xrotation Yrotation Zrotation
											End Site
											{
												OFFSET 0 0 0
											}
										}
									}
								}
							}
						}
						JOINT RightShoulder_virtual
						{
							OFFSET 0.000000 0.000000 0.000000
							CHANNELS 3 Xrotation Yrotation Zrotation
							JOINT RightShoulder
							{
								OFFSET -15.263000 10.923401 -0.547700
								CHANNELS 3 Xrotation Yrotation Zrotation
								JOINT RightArm
								{
									OFFSET -25.438599 -2.830597 -13.032500
									CHANNELS 3 Xrotation Yrotation Zrotation
									JOINT RightForeArm
									{
										OFFSET -29.960503 0.000000 0.000000
										CHANNELS 3 Xrotation Yrotation Zrotation
										JOINT RightHand
										{
											OFFSET -27.849251 0.000000 0.000000
											CHANNELS 3 Xrotation Yrotation Zrotation
											End Site
											{
												OFFSET 0 0 0
											}
										}
									}
								}
							}
						}
					}
				}
			}
		}
	}
}
MOTION
Frames: 12
Frame Time: 0.03333333
-4.948050 36.550949 80.180847 0.000000 0.000000 0.000000 20.487993 -24.188843 -5.711550 -9.596727 1.244678 3.571692 90.572885 -18.733993 -2.284148 31.661205 -7.096715 -33.328885 0.000000 0.000000 0.000000 20.487993 -24.188843 -5.711550 -7.331932 16.226357 -8.026491 60.705109 14.702080 -13.841201 58.063513 11.436251 24.302460 0.000000 0.000000 0.000000 20.487993 -24.188843 -5.711550 0.000001 0.000001 0.000001 5.370093 0.332008 0.738892 -5.387903 1.463347 2.228127 0.000000 0.000000 0.000000 -5.408686 1.438965 2.129568 -12.786614 1.552102 2.681393 0.000000 0.000000 0.000000 -5.408686 1.438965 2.129568 -18.927007 2.423272 -16.209297 6.399253 13.475598 -49.024045 73.253314 -19.968939 30.111391 0.000000 0.000000 0.000000 -5.408686 1.438965 2.129568 -18.645064 3.158385 16.723942 7.365360 -4.012498 58.411662 -23.798083 35.944209 23.539282 0.000000 0.000000 0.000000 
-4.853350 36.402939 81.143555 0.000000 0.000000 0.000000 21.532373 -24.337192 -5.719645 -9.160727 0.777082 2.897737 89.080502 -18.172922 -2.103710 31.962031 -7.185879 -33.266348 0.000000 0.000000 0.000000 21.532373 -24.337192 -5.719645 -7.356126 15.647400 -7.930796 60.328124 15.099598 -13.585271 57.221317 11.336553 24.543096 0.000000 0.000000 0.000000 21.532373 -24.337192 -5.719645 0.000001 0.000000 0.000000 5.325473 0.328865 0.842563 -5.487564 1.423595 2.351743 0.000000 0.000000 0.000000 -5.507080 1.408917 2.254501 -13.009727 1.567685 2.720214 0.000000 0.000000 0.000000 -5.507080 1.408917 2.254501 -19.123847 2.643941 -15.817984 8.811192 13.503269 -48.194744 72.720102 -20.634398 30.098707 0.000000 0.000000 0.000000 -5.507080 1.408917 2.254501 -18.793160 2.934423 16.971143 7.755225 -2.903531 58.461324 -24.989883 38.783754 24.839388 0.000000 0.000000 0.000000 
-4.871151 36.177849 81.974922 0.000000 0.000000 0.000000 22.622772 -24.463870 -5.608365 -8.940877 0.101336 2.284133 87.985438 -17.361718 -1.869459 32.019285 -7.195665 -33.192971 0.000000 0.000000 0.000000 22.622772 -24.463870 -5.608365 -7.004428 15.166896 -8.060719 59.275305 15.189741 -13.275053 57.684397 11.530415 24.702771 0.000000 0.000000 0.000000 22.622772 -24.463870 -5.608365 0.000000 0.000000 0.000000 5.289242 0.374956 0.840426 -5.579765 1.386650 2.467673 0.000000 0.000000 0.000000 -5.597971 1.382303 2.371569 -13.245648 1.577957 2.746366 0.000000 0.000000 0.000000 -5.597971 1.382303 2.371569 -19.324736 2.867693 -15.372847 11.222557 12.997949 -47.136088 70.495871 -22.628990 28.974475 0.000000 0.000000 0.000000 -5.597971 1.382303 2.371569 -18.954770 2.720315 17.238101 8.007429 -1.543121 58.368993 -23.446752 42.276419 23.971092 0.000000 0.000000 0.000000 
-4.896102 35.903473 82.844635 0.000000 0.000000 0.000000 23.762819 -24.521076 -5.462672 -8.674876 -0.762133 1.579565 86.838629 -16.254892 -1.553639 32.016023 -7.220926 -33.273670 0.000000 0.000000 0.000000 23.762819 -24.521076 -5.462672 -6.538913 14.699342 -8.274521 58.063322 14.985242 -12.936831 58.674658 11.734994 24.586325 0.000000 0.000000 0.000000 23.762819 -24.521076 -5.462672 -0.000001 -0.000000 0.000001 5.262841 0.434295 0.810654 -5.663058 1.353729 2.575409 0.000000 0.000000 0.000000 -5.679923 1.360148 2.479899 -13.490617 1.586394 2.763110 0.000000 0.000000 0.000000 -5.679923 1.360148 2.479899 -19.520754 3.090940 -14.887415 13.533070 12.286161 -45.847327 67.504693 -25.443312 27.159216 0.000000 0.000000 0.000000 -5.679923 1.360148 2.479899 -19.127501 2.546787 17.483030 8.238802 -0.098712 58.067994 -19.658234 46.110177 21.064297 0.000000 0.000000 0.000000 
-4.898825 35.604843 83.781372 0.000000 0.000000 0.000000 24.971081 -24.482034 -5.352182 -8.364951 -1.615183 0.820768 85.428297 -15.239725 -1.219196 32.115911 -7.290027 -33.425860 0.000000 0.000000 0.000000 24.971081 -24.482034 -5.352182 -6.181617 14.339420 -8.400468 57.120322 14.529634 -12.702764 59.355799 11.891388 24.532771 0.000000 0.000000 0.000000 24.971081 -24.482034 -5.352182 0.000001 0.000001 -0.000000 5.247739 0.481033 0.814575 -5.734331 1.325687 2.674345 0.000000 0.000000 0.000000 -5.749950 1.343244 2.579083 -13.738477 1.593540 2.770534 0.000000 0.000000 0.000000 -5.749950 1.343244 2.579083 -19.699145 3.311103 -14.383115 15.604023 11.619175 -44.492402 63.822053 -28.749192 24.713752 0.000000 0.000000 0.000000 -5.749950 1.343244 2.579083 -19.283603 2.435057 17.604324 8.641509 1.247380 57.688980 -13.643544 49.929250 16.025065 0.000000 0.000000 0.000000 
-4.853631 35.275879 84.731522 0.000000 0.000000 0.000000 26.241172 -24.337497 -5.299325 -8.033820 -2.450430 0.043690 83.711454 -14.622530 -0.923461 32.321459 -7.434139 -33.796807 0.000000 0.000000 0.000000 26.241172 -24.337497 -5.299325 -6.017928 14.074357 -8.375874 56.586680 14.049936 -12.593547 59.457575 11.980866 24.647228 0.000000 0.000000 0.000000 26.241172 -24.337497 -5.299325 0.000001 0.000000 0.000000 5.240761 0.501337 0.881536 -5.794714 1.303240 2.763934 0.000000 0.000000 0.000000 -5.809078 1.332272 2.668347 -13.984995 1.596440 2.764297 0.000000 0.000000 0.000000 -5.809078 1.332272 2.668347 -19.853734 3.500148 -13.896172 17.163255 11.080621 -43.185210 59.424920 -31.939194 21.514264 0.000000 0.000000 0.000000 -5.809078 1.332272 2.668347 -19.415064 2.395472 17.564011 9.146171 2.484893 57.341979 -5.451866 53.203356 8.795066 0.000000 0.000000 0.000000 
-4.755674 34.895729 85.750626 0.000000 0.000000 0.000000 27.568312 -24.098992 -5.265834 -7.673506 -3.293607 -0.874207 81.787021 -14.108209 -0.605433 32.586272 -7.608851 -34.203631 0.000000 0.000000 0.000000 27.568312 -24.098992 -5.265834 -5.913211 13.673088 -8.209291 56.272282 14.070951 -12.446614 59.481174 11.895950 24.442100 0.000000 0.000000 0.000000 27.568312 -24.098992 -5.265834 0.000001 0.000001 0.000001 5.240262 0.514412 0.969383 -5.845203 1.287938 2.843426 0.000000 0.000000 0.000000 -5.858592 1.328614 2.746264 -14.225314 1.598729 2.747624 0.000000 0.000000 0.000000 -5.858592 1.328614 2.746264 -19.982823 3.650321 -13.444830 18.325698 10.812078 -42.020697 54.988531 -34.777780 18.159122 0.000000 0.000000 0.000000 -5.858592 1.328614 2.746264 -19.525829 2.412065 17.411493 9.771825 3.552145 56.940398 3.947458 55.524831 0.152035 0.000000 0.000000 0.000000 
-4.705419 34.458351 86.792336 0.000000 0.000000 0.000000 28.968970 -23.785693 -5.182512 -7.440124 -4.183881 -1.878809 80.007805 -13.624951 -0.234604 32.481962 -7.673186 -34.617239 0.000000 0.000000 0.000000 28.968970 -23.785693 -5.182512 -5.546392 13.280748 -8.159252 55.733562 14.539982 -12.230279 59.559919 12.010553 24.635546 0.000000 0.000000 0.000000 28.968970 -23.785693 -5.182512 0.000002 -0.000002 0.000000 5.248720 0.554616 0.999671 -5.884112 1.280779 2.911958 0.000000 0.000000 0.000000 -5.896773 1.333185 2.812156 -14.453736 1.603343 2.724896 0.000000 0.000000 0.000000 -5.896773 1.333185 2.812156 -20.080753 3.766275 -13.031744 19.117358 10.752510 -41.050438 50.905065 -37.206499 15.069183 0.000000 0.000000 0.000000 -5.896773 1.333185 2.812156 -19.605004 2.442592 17.125373 10.534741 4.398895 56.517329 13.381822 56.846510 -8.809106 0.000000 0.000000 0.000000 
-4.632199 33.943733 87.726013 0.000000 0.000000 0.000000 30.453706 -23.351852 -5.090024 -7.163652 -5.254655 -2.715611 78.247036 -13.083180 0.212487 32.193198 -7.819033 -35.699350 0.000000 0.000000 0.000000 30.453706 -23.351852 -5.090024 -5.185286 12.953427 -8.119412 55.224320 15.228107 -11.995432 59.567152 12.287322 25.216340 0.000000 0.000000 0.000000 30.453706 -23.351852 -5.090024 0.000001 0.000001 0.000001 5.261731 0.595666 1.025154 -5.912643 1.281302 2.969704 0.000000 0.000000 0.000000 -5.924805 1.345332 2.866669 -14.665577 1.605484 2.693894 0.000000 0.000000 0.000000 -5.924805 1.345332 2.866669 -20.144861 3.830061 -12.686432 19.494781 10.754156 -40.274682 47.363134 -39.125871 12.447303 0.000000 0.000000 0.000000 -5.924805 1.345332 2.866669 -19.646718 2.493593 16.653179 11.247103 5.054227 56.197898 21.701550 57.218018 -16.941499 0.000000 0.000000 0.000000 
-4.603035 33.375370 88.734985 0.000000 0.000000 0.000000 32.021477 -22.805066 -4.962883 -6.943049 -6.270752 -3.593454 76.387572 -12.464433 0.714462 32.018322 -7.931276 -36.463709 0.000000 0.000000 0.000000 32.021477 -22.805066 -4.962883 -4.676634 12.655529 -8.120841 54.631770 15.887078 -11.771088 59.484609 12.639379 26.004893 0.000000 0.000000 0.000000 32.021477 -22.805066 -4.962883 0.000001 -0.000000 -0.000001 5.274006 0.648791 1.026793 -5.933667 1.288990 3.017245 0.000000 0.000000 0.000000 -5.945487 1.364294 2.910152 -14.858498 1.606432 2.658652 0.000000 0.000000 0.000000 -5.945487 1.364294 2.910152 -20.176136 3.833699 -12.407501 19.771227 10.911471 -39.656092 44.673634 -40.874570 10.647653 0.000000 0.000000 0.000000 -5.945487 1.364294 2.910152 -19.653485 2.572381 16.110103 12.204308 5.250132 55.819639 27.944671 57.484716 -23.336260 0.000000 0.000000 0.000000 
-4.573718 32.724350 89.777824 0.000000 0.000000 0.000000 33.690130 -22.124798 -4.831839 -6.748757 -7.313207 -4.565084 74.356513 -11.923898 1.294564 31.906798 -8.064991 -37.218271 0.000000 0.000000 0.000000 33.690130 -22.124798 -4.831839 -4.206838 12.325126 -8.140803 54.029515 16.196530 -11.535636 59.727962 12.897671 26.410853 0.000000 0.000000 0.000000 33.690130 -22.124798 -4.831839 -0.000001 -0.000000 0.000001 5.285415 0.699908 1.034639 -5.947389 1.302976 3.055230 0.000000 0.000000 0.000000 -5.958999 1.389035 2.943502 -15.027050 1.610872 2.627781 0.000000 0.000000 0.000000 -5.958999 1.389035 2.943502 -20.171714 3.805431 -12.171241 20.086301 11.120577 -39.153540 43.022375 -42.696250 9.867668 0.000000 0.000000 0.000000 -5.958999 1.389035 2.943502 -19.629144 2.652906 15.539278 13.365501 4.941608 55.299332 33.181978 57.778981 -28.838455 0.000000 0.000000 0.000000 
-4.514661 32.031448 90.855820 0.000000 0.000000 0.000000 35.467984 -21.292995 -4.724717 -6.579635 -8.463024 -5.485970 72.174145 -11.261824 1.990467 31.932299 -8.284879 -38.135583 0.000000 0.000000 0.000000 35.467984 -21.292995 -4.724717 -3.967594 11.917297 -8.149232 53.556213 15.909515 -11.326665 59.942847 12.921377 26.340995 0.000000 0.000000 0.000000 35.467984 -21.292995 -4.724717 0.000001 0.000000 0.000001 5.294502 0.732560 1.086150 -5.953715 1.320971 3.085279 0.000000 0.000000 0.000000 -5.965193 1.417102 2.969152 -15.168197 1.613205 2.600655 0.000000 0.000000 0.000000 -5.965193 1.417102 2.969152 -20.130536 3.742479 -11.979600 20.372537 11.133529 -38.741864 42.439326 -44.360074 10.064317 0.000000 0.000000 0.000000 -5.965193 1.417102 2.969152 -19.575537 2.705138 14.915619 14.626664 4.154932 54.683963 37.871708 57.943124 -33.764309 0.000000 0.000000 0.000000 
